<svg width="256" height="256" viewBox="0 0 256 256" fill="none" xmlns="http://www.w3.org/2000/svg">
  <defs>
    <linearGradient id="orangeSpine" x1="49" y1="66" x2="127" y2="66" gradientUnits="userSpaceOnUse">
      <stop stop-color="#EF9E44"/>
      <stop offset="1" stop-color="#D35C09"/>
    </linearGradient>
    <linearGradient id="blueSpine" x1="56" y1="106" x2="188" y2="106" gradientUnits="userSpaceOnUse">
      <stop stop-color="#30A4E0"/>
      <stop offset="1" stop-color="#006AB4"/>
    </linearGradient>
    <linearGradient id="greenSpine" x1="60" y1="148" x2="206" y2="148" gradientUnits="userSpaceOnUse">
      <stop stop-color="#8BC34A"/>
      <stop offset="1" stop-color="#2E8B2E"/>
    </linearGradient>
    <linearGradient id="lens" x1="83" y1="59" x2="169" y2="145" gradientUnits="userSpaceOnUse">
      <stop stop-color="#3A89C9"/>
      <stop offset="1" stop-color="#0A5E9B"/>
    </linearGradient>
  </defs>

  <path d="M46 54H124C130 54 134 58 134 64C134 70 130 74 124 74H46V54Z" fill="url(#orangeSpine)"/>
  <path d="M62 44H122C128 44 132 48 132 54V58H62V44Z" fill="#F6F0E8"/>
  <rect x="46" y="58" width="18" height="4" fill="#D66F1E"/>
  <rect x="46" y="66" width="18" height="4" fill="#C65F12"/>
  <rect x="68" y="44" width="6" height="30" fill="#1E3A66" opacity="0.18"/>

  <path d="M54 94H181C188 94 194 100 194 107C194 114 188 120 181 120H54V94Z" fill="url(#blueSpine)"/>
  <path d="M71 84H181C187 84 192 89 192 95V101H71V84Z" fill="#FAF6EF"/>
  <rect x="54" y="99" width="20" height="4" fill="#1D7FBE"/>
  <rect x="54" y="107" width="20" height="4" fill="#15689F"/>
  <rect x="76" y="84" width="7" height="36" fill="#173864" opacity="0.16"/>

  <path d="M58 136H200C207 136 212 141 212 148C212 155 207 160 200 160H58V136Z" fill="url(#greenSpine)"/>
  <path d="M77 124H199C205 124 210 129 210 135V142H77V124Z" fill="#FBF7F1"/>
  <rect x="58" y="142" width="24" height="4" fill="#4A9D35"/>
  <rect x="58" y="150" width="24" height="4" fill="#368228"/>
  <rect x="83" y="124" width="7" height="36" fill="#1F4B1D" opacity="0.16"/>

  <path d="M98 168L146 126L174 154L126 196L98 168Z" fill="#2C6DA2" opacity="0.22"/>

  <circle cx="128" cy="99" r="55" fill="#F6F0E8"/>
  <circle cx="128" cy="99" r="51" fill="#203D6B"/>
  <circle cx="128" cy="99" r="39" fill="url(#lens)"/>
  <circle cx="128" cy="99" r="34" fill="url(#lens)" stroke="#7EC8F2" stroke-width="2"/>

  <path d="M164 133L180 149L153 176C148 181 140 181 135 176C130 171 130 163 135 158L164 133Z" fill="#20324F"/>
  <path d="M156 139L174 157" stroke="#F4F6F9" stroke-width="4" stroke-linecap="round" opacity="0.75"/>

  <path d="M111 92C111 86 115 82 121 82H124V91C124 97 120 101 114 101H111V92Z" fill="#F7F5F0"/>
  <path d="M132 92C132 86 136 82 142 82H145V91C145 97 141 101 135 101H132V92Z" fill="#F7F5F0"/>
  <path d="M114 104C117 104 120 107 120 110C120 113 117 116 114 116C111 116 108 113 108 110C108 107 111 104 114 104Z" fill="#F7F5F0"/>
  <path d="M135 104C138 104 141 107 141 110C141 113 138 116 135 116C132 116 129 113 129 110C129 107 132 104 135 104Z" fill="#F7F5F0"/>
</svg>
